<svg id="Laag_1" data-name="Laag 1" xmlns="http://www.w3.org/2000/svg" viewBox="0 0 384 384"><defs><style>.cls-1{fill:#fff;}</style></defs><path class="cls-1" d="M253.92,605H87V221H253.92c-.38.27-.72.69-1.14.78A87.38,87.38,0,0,0,202,251.46c-17.32,20.17-22.44,43.9-21.12,69.63.23,4.4,2.89,6.56,7.09,6.34,3.51-.18,5.72-2.77,5.78-6.88.05-3.75,0-7.5,0-11.25.28-22.44,8.37-41.43,25.07-56.55,16.24-14.69,35.28-21.06,57.14-19.31a72.16,72.16,0,0,1,45.29,20.45c15.18,14.56,23.42,32.58,23.46,53.9q.12,55.11,0,110.22c0,1.33-.12,2.65-.17,3.92H320.28v-5.17c0-36.49.1-73-.07-109.48a46.16,46.16,0,0,0-9.19-27.9c-10.86-14.52-25.23-22.12-43.61-21.53-15.67.5-28.28,7.13-38,19.22-7.94,9.88-11.21,21.4-11.18,34.05.09,35.37,0,70.73,0,106.1V422H193.77v-4.77q0-33.56,0-67.11a18.31,18.31,0,0,0-.56-4.79c-.82-2.92-3.11-4.14-6-4.11s-5.1,1.29-5.84,4.25a19.71,19.71,0,0,0-.53,4.79q-.06,33.74,0,67.48v4.7c-9.24-.68-17.5-.35-19.23,11.13h-4.14c-8.74,0-17.47,0-26.2,0-8.21,0-14.15,5.94-14.2,14.07,0,4.37,0,8.74,0,13.12,0,8.38,5.92,14.22,14.39,14.26,6.36,0,12.72,0,19.09,0h11.12c1.66,12,10.6,11.46,19.17,11.33,0,2.58-.05,4.57,0,6.56.43,12.95-.49,26.13,1.6,38.81,5.37,32.61,24.14,55.26,54.65,67.9C242.52,601.83,248.3,603.22,253.92,605Z" transform="translate(-87 -221)"/><path class="cls-1" d="M284.61,221H471V605H284.61a20.07,20.07,0,0,1,1.89-.87c7.16-2.41,14.64-4.13,21.44-7.33a82.88,82.88,0,0,0,36.62-33.43,6.7,6.7,0,0,1,6.84-3.73c7.23.29,14.47.18,21.7.06,5.83-.1,9.15-4.52,7.16-9.33-1.39-3.37-4.44-3.7-7.48-3.74-6.53-.07-13.06,0-20.14,0,7.55-19.93,4.16-40.22,5.29-60.38,2.59,0,4.82,0,7.05,0,7.35-.12,11.59-4.33,11.61-11.61q0-20.43,0-40.85c0-7.08-4.24-11.34-11.34-11.49-2.43-.06-4.87,0-7.32,0V367.73c5.29,0,10.38.26,15.43-.12,2.13-.16,4.88-1.14,6-2.72a7.1,7.1,0,0,0,.43-6.4,8.44,8.44,0,0,0-5.82-3.55c-5.27-.5-10.62-.17-15.91-.17-1.9-25.38,3.05-50.66-5.17-75.38,6.9,0,13.38.21,19.84-.12,2.26-.11,5.12-1,6.48-2.58,1.21-1.4,1.43-4.5.81-6.45-.94-3-3.88-4-7-4-7.73,0-15.46.11-23.19-.1A5.67,5.67,0,0,1,345.8,264c-11.51-18.7-27.27-32.09-48.16-39.15C293.35,223.41,289,222.28,284.61,221Zm122.5,330.65.7-.24,2,2.88q8.63,12.4,17.24,24.8c2,2.93,4.67,4.5,8.24,3.3s4.93-3.84,4.91-7.49c-.06-7.62,0-15.25,0-22.87,0-7.12,0-14.24-.17-21.36-.13-6.26-5-9.52-9.92-6.67-3,1.74-3.17,4.77-3.15,7.86.05,7.67,0,15.35,0,23.93-1.46-1.88-2.4-3-3.22-4.16q-8.25-12-16.47-24c-2.9-4.21-5.52-5.56-9-4.13s-4.14,4.62-4.12,8.07c.05,6.24,0,12.49,0,18.74,0,8.37,0,16.75,0,25.12,0,3.59,1.15,6.44,4.83,7.51,4.22,1.23,8.07-2,8.1-6.74C407.14,568,407.11,559.84,407.11,551.65ZM394.17,454c0,7.24-.05,14.48,0,21.72,0,5.27,2.52,7.67,7.75,7.68,4.61,0,9.22,0,13.83-.07A19,19,0,0,0,428.88,478c9.92-9.52,11.59-21.25,8.45-34.05-2.76-11.23-11.65-19.91-25-18.91-3.35.25-6.73,0-10.09,0-5.93,0-8.05,2.09-8.08,8C394.14,440.06,394.17,447.05,394.17,454Zm25.62-86.21c1-.59,1.56-.91,2.11-1.19,8.15-4.25,12.33-12.35,10.46-20.3-2.27-9.66-9-14.95-19-15q-5.81,0-11.6,0c-5.09,0-7.48,2.08-7.51,7.06q-.15,22.88,0,45.74c0,4.77,2.51,7.15,6.77,7.05,3.93-.09,6.08-2.63,6.12-7.29,0-3.15,0-6.3,0-9.45l1.15-.46,4.1,4.75c3.1,3.57,6.07,7.26,9.35,10.65,2.34,2.41,5.76,2.87,8.14.78a9,9,0,0,0,2.42-6.79c-.21-2-2.32-4-3.82-5.79C425.75,374.35,422.87,371.28,419.79,367.83Zm-12.68-85.45c3,0,5.45.09,7.91,0,10-.47,17.64-8.05,19-18.71,1-7.89-5.43-17.88-13.94-19.78-5.85-1.29-12.1-.84-18.18-1-5.44-.12-7.69,2.18-7.71,7.71q-.06,22.48,0,45c0,4.24,3.07,7.69,6.59,7.58s6.29-3.42,6.33-7.47C407.14,291.44,407.11,287.2,407.11,282.38Z" transform="translate(-87 -221)"/><path d="M284.61,221c4.35,1.28,8.74,2.41,13,3.86,20.89,7.06,36.65,20.45,48.16,39.15a5.67,5.67,0,0,0,4.07,2.16c7.73.21,15.46.09,23.19.1,3.09,0,6,1,7,4,.62,1.95.4,5.05-.81,6.45-1.36,1.59-4.22,2.47-6.48,2.58-6.46.33-12.94.12-19.84.12,8.22,24.72,3.27,50,5.17,75.38,5.29,0,10.64-.33,15.91.17a8.44,8.44,0,0,1,5.82,3.55,7.1,7.1,0,0,1-.43,6.4c-1.14,1.58-3.89,2.56-6,2.72-5.05.38-10.14.12-15.43.12v54.54c2.45,0,4.89,0,7.32,0,7.1.15,11.33,4.41,11.34,11.49q.06,20.42,0,40.85c0,7.28-4.26,11.49-11.61,11.61-2.23,0-4.46,0-7.05,0-1.13,20.16,2.26,40.45-5.29,60.38,7.08,0,13.61-.05,20.14,0,3,0,6.09.37,7.48,3.74,2,4.81-1.33,9.23-7.16,9.33-7.23.12-14.47.23-21.7-.06a6.7,6.7,0,0,0-6.84,3.73,82.88,82.88,0,0,1-36.62,33.43c-6.8,3.2-14.28,4.92-21.44,7.33a20.07,20.07,0,0,0-1.89.87H253.92c-5.62-1.78-11.4-3.17-16.83-5.42-30.51-12.64-49.28-35.29-54.65-67.9-2.09-12.68-1.17-25.86-1.6-38.81-.06-2,0-4,0-6.56-8.57.13-17.51.66-19.17-11.33H150.54c-6.37,0-12.73,0-19.09,0-8.47,0-14.36-5.88-14.39-14.26,0-4.38,0-8.75,0-13.12,0-8.13,6-14,14.2-14.07,8.73,0,17.46,0,26.2,0h4.14c1.73-11.48,10-11.81,19.23-11.13v-4.7q0-33.74,0-67.48a19.71,19.71,0,0,1,.53-4.79c.74-3,3-4.23,5.84-4.25s5.14,1.19,6,4.11a18.31,18.31,0,0,1,.56,4.79q0,33.56,0,67.11V422h24.49v-4.73c0-35.37.06-70.73,0-106.1,0-12.65,3.24-24.17,11.18-34.05,9.72-12.09,22.33-18.72,38-19.22,18.38-.59,32.75,7,43.61,21.53a46.16,46.16,0,0,1,9.19,27.9c.17,36.49.07,73,.07,109.48v5.17h24.31c.05-1.27.17-2.59.17-3.92q0-55.11,0-110.22c0-21.32-8.28-39.34-23.46-53.9A72.16,72.16,0,0,0,276,233.44c-21.86-1.75-40.9,4.62-57.14,19.31-16.7,15.12-24.79,34.11-25.07,56.55-.05,3.75,0,7.5,0,11.25-.06,4.11-2.27,6.7-5.78,6.88-4.2.22-6.86-1.94-7.09-6.34-1.32-25.73,3.8-49.46,21.12-69.63a87.38,87.38,0,0,1,50.77-29.68c.42-.09.76-.51,1.14-.78Zm79.3,214.52H174.79v37.75h81.47c1.88,0,3.75-.07,5.62,0,4.21.2,6.82,2.62,6.9,6.29.09,3.85-2.56,6.54-6.94,6.61-6.86.13-13.72,0-20.58,0h-9.83c-.1,1.26-.22,2.11-.22,2.95,0,9.87-.08,19.74.17,29.61.56,21.71,20.48,39.29,42.61,36.22,19.48-2.7,33.06-18,33.32-37.81.13-9.24,0-18.49,0-27.74,0-1-.17-1.92-.29-3.23-6.16,0-12.12.07-18.08,0-4.25-.07-6.63-2.69-6.5-6.89.12-3.89,2.68-6,7.37-6.05h74.09Zm-56.78-13.47c.08-1.13.2-2,.2-2.83,0-36.86.14-73.72-.15-110.57a41.47,41.47,0,0,0-3.44-15.46c-10-23.58-41.26-31.13-61.4-11.33-8,7.86-11.23,17.87-11.19,29.15.13,35.73,0,71.47.06,107.2,0,1.21.13,2.43.2,3.84ZM194,486.42c0,12.82-.86,25.25.19,37.52,1.94,22.62,12.49,41.07,30.83,54.41S263.79,596,286.08,591a73.76,73.76,0,0,0,40.62-24.74,72.1,72.1,0,0,0,17.81-43.42c.59-9.71.21-19.49.25-29.24,0-2.33,0-4.66,0-7H320.28c0,11,.2,21.77-.06,32.5a47.38,47.38,0,0,1-11.45,30.5c-15.59,18.12-37.34,23.81-59.38,14.6-17.74-7.41-28.29-21.43-30.37-40.71-1.16-10.75-.57-21.68-.76-32.54,0-1.44,0-2.89,0-4.47ZM161.8,446.49c-10.05,0-19.73-.08-29.41.14-.95,0-2.53,1.82-2.67,2.94-.38,2.94-.06,6-.16,8.95-.08,2.54.94,3.58,3.53,3.53,6.22-.11,12.43,0,18.65,0H161.8Z" transform="translate(-87 -221)"/><path d="M407.11,551.65c0,8.19,0,16.39,0,24.59,0,4.74-3.88,8-8.1,6.74-3.68-1.07-4.84-3.92-4.83-7.51,0-8.37,0-16.75,0-25.12,0-6.25,0-12.5,0-18.74,0-3.45.61-6.64,4.12-8.07s6.11-.08,9,4.13q8.25,12,16.47,24c.82,1.19,1.76,2.28,3.22,4.16,0-8.58,0-16.26,0-23.93,0-3.09.13-6.12,3.15-7.86,4.92-2.85,9.79.41,9.92,6.67.15,7.12.15,14.24.17,21.36,0,7.62,0,15.25,0,22.87,0,3.65-1.42,6.32-4.91,7.49s-6.21-.37-8.24-3.3q-8.61-12.4-17.24-24.8l-2-2.88Z" transform="translate(-87 -221)"/><path d="M394.17,454c0-7,0-14,0-21,0-5.93,2.15-8,8.08-8,3.36,0,6.74.22,10.09,0,13.33-1,22.22,7.68,25,18.91,3.14,12.8,1.47,24.53-8.45,34.05a19,19,0,0,1-13.11,5.39c-4.61.1-9.22.08-13.83.07-5.23,0-7.71-2.41-7.75-7.68C394.12,468.52,394.17,461.28,394.17,454Zm13.18,16.59c7,.8,13.35.3,16.37-6.53,3.14-7.11,3.27-14.68-.9-21.5-3.53-5.79-9.51-5.32-15.47-4.72Z" transform="translate(-87 -221)"/><path d="M419.79,367.83c3.08,3.45,6,6.52,8.66,9.74,1.5,1.8,3.61,3.75,3.82,5.79a9,9,0,0,1-2.42,6.79c-2.38,2.09-5.8,1.63-8.14-.78-3.28-3.39-6.25-7.08-9.35-10.65l-4.1-4.75-1.15.46c0,3.15,0,6.3,0,9.45,0,4.66-2.19,7.2-6.12,7.29-4.26.1-6.74-2.28-6.77-7.05q-.15-22.86,0-45.74c0-5,2.42-7,7.51-7.06q5.79,0,11.6,0c10.07.07,16.77,5.36,19,15,1.87,8-2.31,16.05-10.46,20.3C421.35,366.92,420.82,367.24,419.79,367.83Zm-12.53-23.5v11.5c9.61-.08,12.65-1.8,12.34-6.58C419.32,344.87,415.11,343.12,407.26,344.33Z" transform="translate(-87 -221)"/><path d="M407.11,282.38c0,4.82,0,9.06,0,13.3,0,4.05-2.89,7.36-6.33,7.47s-6.58-3.34-6.59-7.58q0-22.49,0-45c0-5.53,2.27-7.83,7.71-7.71,6.08.14,12.33-.31,18.18,1,8.51,1.9,14.94,11.89,13.94,19.78-1.35,10.66-9,18.24-19,18.71C412.56,282.47,410.09,282.38,407.11,282.38Zm.24-13c4.8-.64,10.13,1.84,12.63-3.79.85-1.91.8-5.2-.33-6.83-2.94-4.25-7.69-3.57-12.3-3.11Z" transform="translate(-87 -221)"/><path class="cls-1" d="M363.91,435.52v37.75H289.82c-4.69,0-7.25,2.16-7.37,6.05-.13,4.2,2.25,6.82,6.5,6.89,6,.09,11.92,0,18.08,0,.12,1.31.29,2.27.29,3.23,0,9.25.12,18.5,0,27.74C307.05,537,293.47,552.31,274,555c-22.13,3.07-42.05-14.51-42.61-36.22-.25-9.87-.13-19.74-.17-29.61,0-.84.12-1.69.22-2.95h9.83c6.86,0,13.72.09,20.58,0,4.38-.07,7-2.76,6.94-6.61-.08-3.67-2.69-6.09-6.9-6.29-1.87-.09-3.74,0-5.62,0H174.79V435.52Z" transform="translate(-87 -221)"/><path class="cls-1" d="M307.13,422.05H231.41c-.07-1.41-.2-2.63-.2-3.84,0-35.73.07-71.47-.06-107.2,0-11.28,3.2-21.29,11.19-29.15,20.14-19.8,51.41-12.25,61.4,11.33a41.47,41.47,0,0,1,3.44,15.46c.29,36.85.16,73.71.15,110.57C307.33,420.07,307.21,420.92,307.13,422.05Z" transform="translate(-87 -221)"/><path class="cls-1" d="M194,486.42h24.31c0,1.58,0,3,0,4.47.19,10.86-.4,21.79.76,32.54,2.08,19.28,12.63,33.3,30.37,40.71,22,9.21,43.79,3.52,59.38-14.6A47.38,47.38,0,0,0,320.22,519c.26-10.73.06-21.46.06-32.5h24.48c0,2.36,0,4.69,0,7,0,9.75.34,19.53-.25,29.24a72.1,72.1,0,0,1-17.81,43.42A73.76,73.76,0,0,1,286.08,591c-22.29,5.06-42.8.7-61.11-12.61s-28.89-31.79-30.83-54.41C193.09,511.67,194,499.24,194,486.42Z" transform="translate(-87 -221)"/><path class="cls-1" d="M161.8,446.49V462H151.74c-6.22,0-12.43-.08-18.65,0-2.59.05-3.61-1-3.53-3.53.1-3-.22-6,.16-8.95.14-1.12,1.72-2.92,2.67-2.94C142.07,446.41,151.75,446.49,161.8,446.49Z" transform="translate(-87 -221)"/><path class="cls-1" d="M407.35,470.63V437.88c6-.6,11.94-1.07,15.47,4.72,4.17,6.82,4,14.39.9,21.5C420.7,470.93,414.37,471.43,407.35,470.63Z" transform="translate(-87 -221)"/><path class="cls-1" d="M407.26,344.33c7.85-1.21,12.06.54,12.34,4.92.31,4.78-2.73,6.5-12.34,6.58v-11.5Z" transform="translate(-87 -221)"/><path class="cls-1" d="M407.35,269.36V255.63c4.61-.46,9.36-1.14,12.3,3.11,1.13,1.63,1.18,4.92.33,6.83C417.48,271.2,412.15,268.72,407.35,269.36Z" transform="translate(-87 -221)"/></svg>