<svg id="Laag_1" data-name="Laag 1" xmlns="http://www.w3.org/2000/svg" viewBox="0 0 384 384"><defs><style>.cls-1{fill:#fff;}</style></defs><path class="cls-1" d="M314.11,243H493V627H383c5.07-2.19,10.48-3.8,15.14-6.66,16.25-10,25.57-24.46,25.92-43.85.32-18.24-.05-36.49.1-54.73.19-23.51-17.83-44.61-39.39-49.82-3.49-.84-7.23-.84-10.57-2-8.08-2.88-15.92-6.45-24-9.3-4.83-1.71-9.94-2.58-15.18-3.88a1.47,1.47,0,0,1-.12-.62c0-26.24-.07-52.48.08-78.72a5.7,5.7,0,0,1,2.59-3.93,71,71,0,0,0,32.51-73.82c-2.27-11.81-7-22.57-15-31.66-3.08-3.49-6.66-3.76-9.51-1.22s-2.81,6.06,0,9.69c10.78,14.08,15.28,29.94,11.88,47.39-5.7,29.31-32.24,50.73-64.47,46.54a57.65,57.65,0,0,1-49.47-65.93A58.26,58.26,0,0,1,300.78,255a54.91,54.91,0,0,1,28.09,7.58c3,1.72,5.88,1.66,8.46-1.05,2.31-2.45,3-5.38.67-7.69a26.2,26.2,0,0,0-8.26-5.36C324.66,246.34,319.34,244.8,314.11,243Zm-42.73,63.57c0-4.17.06-8.14,0-12.1-.08-4.22-2.16-6.34-6.11-6.4-4.22-.08-6.34,2-6.45,6.43-.08,3.13.05,6.25,0,9.38-.36,15.38.07,15.92,15.35,15.54,2.58-.06,5.15,0,8.05,0,0,4.22-.21,8,.05,11.67.32,4.76,3,7.32,7,7.07,3.62-.24,6-3.2,6.08-7.6,0-3.59,0-7.18,0-10.95H306c0,4.16-.11,8.13,0,12.09a6.67,6.67,0,0,0,5.68,6.45c3.39.41,5.86-1.26,6.83-4.91a22.86,22.86,0,0,0,.57-5.16c.09-2.81,0-5.63,0-8.35h10.77c0,4,0,7.77,0,11.5.05,4.39,2.18,6.78,6.09,6.93,3.63.13,6.47-2.91,6.48-7.15q.06-18,0-36c0-4.84-2-7-6.3-7s-6.23,2.22-6.27,7c0,3.82,0,7.64,0,11.46H319.12c0-3.5.2-6.75-.07-10-.19-2.15-.4-5-1.76-6.17-1.73-1.46-5.12-2.66-6.92-1.9-2,.84-3.8,3.88-4.22,6.23-.69,3.82-.19,7.85-.19,11.83H295.3c0-4.18.1-8.14,0-12.1-.11-3.41-2.65-6.18-5.6-6.39-4-.29-6.53,1.41-7,5.42-.54,4.27-.52,8.62-.75,13.07Z" transform="translate(-109 -243)"/><path class="cls-1" d="M218.28,627H109V243H287.16a4.19,4.19,0,0,1-1.17.76c-15.4,3.39-28.39,10.77-38.7,22.89-14.82,17.43-20.19,37.47-16,59.79,3.8,20.39,15,36,32.66,46.95,2.15,1.34,2.54,3,2.54,5.26q-.09,37.5-.05,75c0,1.31-.11,2.62-.17,3.83-2.72.24-5.06,0-7.14.71-7.85,2.49-15.63,5.2-23.41,7.94-2.33.82-4.54,2-6.83,3a13.28,13.28,0,0,1-3.48,1.19c-8,.94-15.59,3-22.46,7.35-15.93,10-25.28,24.18-25.69,43.28-.39,18.11-.1,36.24-.09,54.37,0,18.69,8.28,33.1,23.47,43.37C206,622.27,212.36,624.27,218.28,627Z" transform="translate(-109 -243)"/><path d="M218.28,627c-5.92-2.73-12.33-4.73-17.66-8.34-15.19-10.27-23.46-24.68-23.47-43.37,0-18.13-.3-36.26.09-54.37.41-19.1,9.76-33.24,25.69-43.28,6.87-4.33,14.47-6.41,22.46-7.35a13.28,13.28,0,0,0,3.48-1.19c2.29-1,4.5-2.15,6.83-3,7.78-2.74,15.56-5.45,23.41-7.94,2.08-.66,4.42-.47,7.14-.71.06-1.21.17-2.52.17-3.83q0-37.5.05-75c0-2.29-.39-3.92-2.54-5.26-17.61-10.93-28.86-26.56-32.66-46.95-4.17-22.32,1.2-42.36,16-59.79,10.31-12.12,23.3-19.5,38.7-22.89a4.19,4.19,0,0,0,1.17-.76h26.95c5.23,1.8,10.55,3.34,15.63,5.48a26.2,26.2,0,0,1,8.26,5.36c2.31,2.31,1.64,5.24-.67,7.69-2.58,2.71-5.45,2.77-8.46,1.05A54.91,54.91,0,0,0,300.78,255a58.26,58.26,0,0,0-57.29,49.45A57.65,57.65,0,0,0,293,370.38c32.23,4.19,58.77-17.23,64.47-46.54,3.4-17.45-1.1-33.31-11.88-47.39-2.78-3.63-2.76-7.21,0-9.69s6.43-2.27,9.51,1.22c8,9.09,12.7,19.85,15,31.66a71,71,0,0,1-32.51,73.82,5.7,5.7,0,0,0-2.59,3.93c-.15,26.24-.1,52.48-.08,78.72a1.47,1.47,0,0,0,.12.62c5.24,1.3,10.35,2.17,15.18,3.88,8.09,2.85,15.93,6.42,24,9.3,3.34,1.19,7.08,1.19,10.57,2,21.56,5.21,39.58,26.31,39.39,49.82-.15,18.24.22,36.49-.1,54.73-.35,19.39-9.67,33.87-25.92,43.85-4.66,2.86-10.07,4.47-15.14,6.66ZM368,481.48c0,6.24,0,12.1,0,18s0,11.75,0,17.62c-.17,15.09-13.71,28.77-28.74,28.82q-38.55.14-77.11,0c-15,0-28.6-13.72-28.74-28.82-.1-11.78,0-23.56,0-35.34l-1.21-1.11c-1.73,2.23-3.41,4.51-5.2,6.69-4.86,5.89-6.31,12.88-6.39,20.22-.13,10.62-.1,21.25,0,31.87a41.69,41.69,0,0,0,1,9.27c2.29,9.45,8,16.1,17,19.94a10.78,10.78,0,0,1,4.42,3.13,5.53,5.53,0,0,1-.21,7.22,6.44,6.44,0,0,1-7.63,2.17c-15.21-5-27.08-21.14-27.17-37.21-.08-13.38-.19-26.76.08-40.12.09-4.17,1.34-8.31,2.1-12.46.17-.9.52-1.76,1-3.26a35.54,35.54,0,0,0-3.92,2.1c-11.43,8.35-17.25,19.69-17.37,33.82-.13,16.25.09,32.5-.05,48.75-.22,24.08,17.73,42.32,42.05,42.33q68.88,0,137.75,0a45.45,45.45,0,0,0,10.35-1.11c19.12-4.59,31.65-20.73,31.66-40.46q0-24.57,0-49.12a40.77,40.77,0,0,0-9.7-27.17c-3.05-3.61-6.5-6.88-10.84-8.61.83,5.4,2.17,10.5,2.3,15.63.33,12.87.15,25.75.1,38.62C393.29,565,375.05,583.34,353,583.4q-45.86.11-91.71,0A10.41,10.41,0,0,1,258,583a6.6,6.6,0,0,1-4.39-7.39c.53-3.22,2.75-4.83,6.9-4.83,29.2,0,58.4,0,87.6-.06a45.57,45.57,0,0,0,11.06-1.21c13.65-3.53,21.47-14,21.62-29.75.1-10.88.12-21.75,0-32.63C380.62,496.69,377.2,487.75,368,481.48ZM279.7,380.71c-.11,1.4-.25,2.37-.25,3.34,0,34.73-.05,69.46.06,104.19a33.28,33.28,0,0,0,1.6,9.84c2.77,8.65,13.19,14.8,22.18,13.44,9.92-1.51,18.31-10.17,18.35-19.61.16-36.23.14-72.46.17-108.68a17.77,17.77,0,0,0-.36-2.5A71.72,71.72,0,0,1,279.7,380.71ZM266.43,471c-11.94-.92-20.5,6.88-20.53,18.13q0,12.54,0,25.1c0,10.82,7.9,19,18.73,19.06q36.09.16,72.19,0c10.15,0,18.37-8,18.52-17.73.15-9.24.19-18.49,0-27.73-.22-10.51-10.8-19-20.49-16.39,0,6.28.13,12.63,0,19-.24,9.76-3.7,18.29-10.87,24.95-7.71,7.16-17.09,9.84-27.51,8.77a32.34,32.34,0,0,1-20.55-10.22c-6.94-7.3-9.67-16.3-9.47-26.3C266.52,482.16,266.43,476.69,266.43,471Z" transform="translate(-109 -243)"/><path d="M271.38,306.57h10.51c.23-4.45.21-8.8.75-13.07.51-4,3.05-5.71,7-5.42,2.95.21,5.49,3,5.6,6.39.12,4,0,7.92,0,12.1H306c0-4-.5-8,.19-11.83.42-2.35,2.23-5.39,4.22-6.23,1.8-.76,5.19.44,6.92,1.9,1.36,1.16,1.57,4,1.76,6.17.27,3.21.07,6.46.07,10h10.76c0-3.82,0-7.64,0-11.46,0-4.8,2-7,6.27-7s6.29,2.12,6.3,7q.06,18,0,36c0,4.24-2.85,7.28-6.48,7.15-3.91-.15-6-2.54-6.09-6.93,0-3.73,0-7.46,0-11.5H319.12c0,2.72.06,5.54,0,8.35a22.86,22.86,0,0,1-.57,5.16c-1,3.65-3.44,5.32-6.83,4.91A6.67,6.67,0,0,1,306,331.7c-.14-4,0-7.93,0-12.09H295.31c0,3.77,0,7.36,0,10.95-.05,4.4-2.46,7.36-6.08,7.6-4,.25-6.67-2.31-7-7.07-.26-3.71-.05-7.45-.05-11.67-2.9,0-5.47-.06-8.05,0-15.28.38-15.71-.16-15.35-15.54.08-3.13,0-6.25,0-9.38.11-4.44,2.23-6.51,6.45-6.43,3.95.06,6,2.18,6.11,6.4C271.44,298.43,271.38,302.4,271.38,306.57Z" transform="translate(-109 -243)"/><path class="cls-1" d="M368,481.48c9.23,6.27,12.65,15.21,12.78,25.67.14,10.88.12,21.75,0,32.63-.15,15.73-8,26.22-21.62,29.75a45.57,45.57,0,0,1-11.06,1.21c-29.2.09-58.4,0-87.6.06-4.15,0-6.37,1.61-6.9,4.83A6.6,6.6,0,0,0,258,583a10.41,10.41,0,0,0,3.3.38q45.86,0,91.71,0c22.06-.06,40.3-18.44,40.39-40.58.05-12.87.23-25.75-.1-38.62-.13-5.13-1.47-10.23-2.3-15.63,4.34,1.73,7.79,5,10.84,8.61a40.77,40.77,0,0,1,9.7,27.17q0,24.55,0,49.12c0,19.73-12.54,35.87-31.66,40.46A45.45,45.45,0,0,1,369.52,615q-68.86.11-137.75,0c-24.32,0-42.27-18.25-42.05-42.33.14-16.25-.08-32.5.05-48.75.12-14.13,5.94-25.47,17.37-33.82a35.54,35.54,0,0,1,3.92-2.1c-.46,1.5-.81,2.36-1,3.26-.76,4.15-2,8.29-2.1,12.46-.27,13.36-.16,26.74-.08,40.12.09,16.07,12,32.17,27.17,37.21A6.44,6.44,0,0,0,242.7,579a5.53,5.53,0,0,0,.21-7.22,10.78,10.78,0,0,0-4.42-3.13c-9-3.84-14.71-10.49-17-19.94a41.69,41.69,0,0,1-1-9.27c-.11-10.62-.14-21.25,0-31.87.08-7.34,1.53-14.33,6.39-20.22,1.79-2.18,3.47-4.46,5.2-6.69l1.21,1.11c0,11.78-.08,23.56,0,35.34.14,15.1,13.71,28.77,28.74,28.82q38.55.14,77.11,0c15,0,28.57-13.73,28.74-28.82.07-5.87,0-11.75,0-17.62S368,487.72,368,481.48Z" transform="translate(-109 -243)"/><path class="cls-1" d="M279.7,380.71a71.72,71.72,0,0,0,41.75,0,17.77,17.77,0,0,1,.36,2.5c0,36.22,0,72.45-.17,108.68,0,9.44-8.43,18.1-18.35,19.61-9,1.36-19.41-4.79-22.18-13.44a33.28,33.28,0,0,1-1.6-9.84c-.11-34.73-.07-69.46-.06-104.19C279.45,383.08,279.59,382.11,279.7,380.71Z" transform="translate(-109 -243)"/><path class="cls-1" d="M266.43,471c0,5.68.09,11.15,0,16.61-.2,10,2.53,19,9.47,26.3a32.34,32.34,0,0,0,20.55,10.22c10.42,1.07,19.8-1.61,27.51-8.77,7.17-6.66,10.63-15.19,10.87-24.95.16-6.35,0-12.7,0-19,9.69-2.61,20.27,5.88,20.49,16.39.2,9.24.16,18.49,0,27.73-.15,9.71-8.37,17.68-18.52,17.73q-36.09.19-72.19,0c-10.83,0-18.71-8.24-18.73-19.06q0-12.56,0-25.1C245.93,477.89,254.49,470.09,266.43,471Z" transform="translate(-109 -243)"/></svg>