<svg xmlns="http://www.w3.org/2000/svg" width="34.641" height="50.4" viewBox="0 0 34.641 50.4">
  <path id="Icon_awesome-question" data-name="Icon awesome-question" d="M19.167,0C11.309,0,6.22,3.219,2.225,8.96a2.365,2.365,0,0,0,.51,3.236l4.246,3.22a2.362,2.362,0,0,0,3.273-.408c2.466-3.089,4.295-4.868,8.146-4.868,3.028,0,6.774,1.949,6.774,4.886,0,2.22-1.833,3.36-4.823,5.036-3.487,1.955-8.1,4.388-8.1,10.474V31.5a2.362,2.362,0,0,0,2.363,2.362h7.134A2.362,2.362,0,0,0,24.109,31.5v-.568c0-4.219,12.331-4.395,12.331-15.812C36.441,6.522,27.522,0,19.167,0ZM18.18,36.762A6.819,6.819,0,1,0,25,43.581,6.827,6.827,0,0,0,18.18,36.762Z" transform="translate(-1.8)"/>
</svg>
