<svg xmlns="http://www.w3.org/2000/svg" xmlns:xlink="http://www.w3.org/1999/xlink" width="1000" height="1000" viewBox="0 0 1000 1000">
  <defs>
    <style>
      .cls-1 {
        clip-path: url(#clip-saab);
      }

      .cls-2 {
        fill: rgba(255,255,255,0);
      }

      .cls-2, .cls-3, .cls-4, .cls-5, .cls-6 {
        fill-rule: evenodd;
      }

      .cls-3 {
        fill: #123164;
      }

      .cls-4 {
        fill: #dbdcdd;
      }

      .cls-5 {
        fill: #d8b146;
      }

      .cls-6 {
        fill: #b01842;
      }
    </style>
    <clipPath id="clip-saab">
      <rect width="1000" height="1000"/>
    </clipPath>
  </defs>
  <g id="saab" class="cls-1">
    <g id="saab-logo-vector" transform="translate(187.576 187.576)">
      <path id="Path_1" data-name="Path 1" class="cls-2" d="M0,0H624.849V624.849H0Z"/>
      <path id="Path_2" data-name="Path 2" class="cls-3" d="M578.219,293.361C578.219,136.053,450.672,8.5,293.361,8.5S8.5,136.05,8.5,293.361,136.053,578.219,293.361,578.219,578.219,450.672,578.219,293.361Z" transform="translate(19.063 19.063)"/>
      <path id="Path_3" data-name="Path 3" class="cls-4" d="M279.08,14.875c145.161,0,264.2,118.437,264.2,264.2,0,145.161-119.043,264.211-264.2,264.211-145.768,0-264.2-119.05-264.2-264.211C14.875,133.312,133.312,14.875,279.08,14.875Z" transform="translate(33.345 33.345)"/>
      <path id="Path_4" data-name="Path 4" class="cls-3" d="M526.854,272.359c0-140.908-114.187-254.486-254.493-254.486S17.872,131.451,17.872,272.359c0,140.305,114.187,254.493,254.489,254.493S526.854,412.665,526.854,272.359Z" transform="translate(40.063 40.065)"/>
      <path id="Path_5" data-name="Path 5" class="cls-4" d="M54.221,63.777c5.465,4.859,13.968,13.968,26.724,13.968,13.362,0,23.081-4.859,32.19-4.859,6.684,0,18.221,3.644,23.69,15.184-3.037-2.431-9.112-5.469-19.437-5.469-7.287,0-20.043,7.29-30.977,7.29C69.4,89.892,59.686,75.923,54.221,63.777Z" transform="translate(121.545 142.966)"/>
      <path id="Path_6" data-name="Path 6" class="cls-5" d="M103.7,97.7,73.332,27.243c12.756,0,25.512,5.465,25.512,15.793A19.366,19.366,0,0,1,95.2,53.361c0,.606,0,.606.606.606,2.431-2.431,5.465-4.253,9.109-4.253,6.684,0,11.544,5.469,11.544,12.15A11.533,11.533,0,0,1,104.915,73.4h-2.428c.609,2.431,9.112,7.287,18.831,7.287a22.212,22.212,0,0,0,20.649-12.756c-1.822,1.822-4.859,2.431-7.29,2.431-6.681,0-12.146-4.859-12.146-11.54A12.366,12.366,0,0,1,141.358,48.5a10.623,10.623,0,0,1-4.253-8.5c0-6.075,5.469-11.54,12.15-11.54S161.4,33.924,161.4,40a9.8,9.8,0,0,1-3.64,7.9,17.631,17.631,0,0,1,5.465-1.216,12.182,12.182,0,0,1,12.143,12.15c0,6.681-5.465,11.54-12.143,11.54-3.041,0-5.465-1.216-7.9-2.431C157.151,72.8,166.257,81.3,177.191,81.3c6.078,0,12.759-2.431,18.831-7.9H194.2c-7.287,0-12.753-5.469-12.753-11.54,0-6.681,5.465-12.15,12.753-12.15,3.041,0,6.078,1.822,8.5,4.253h.609a.6.6,0,0,0,.609-.606c-3.041-3.647-4.25-7.29-4.25-10.325,0-10.328,12.753-15.793,24.9-15.793L195.419,97.088H107.347a7.771,7.771,0,0,0-3.647.609Z" transform="translate(164.385 61.063)"/>
      <path id="Path_7" data-name="Path 7" class="cls-4" d="M160.536,64.578c1.216-7.287,6.681-15.79,12.756-15.79h88.066a64.254,64.254,0,0,1,5.465,6.681,45.855,45.855,0,0,1,17.012-3.037,65.894,65.894,0,0,1,7.9.609s3.64.609,4.25,1.822c-4.25,9.718-7.287,15.184-10.928,20.043,15.184,15.793,21.256,35.227,18.215,60.129a89.483,89.483,0,0,0-17.615-7.287c7.9,12.146,10.328,23.081,10.328,35.227a67.19,67.19,0,0,1-5.465,26.118l-2.431,6.681c-4.856-6.681-8.5-11.54-13.968-15.79,1.216,4.253,3.034,13.362,3.034,19.437,0,16.4-6.681,30.974-21.862,40.693-3.041-7.9-9.112-19.431-15.184-26.724.609,15.19,0,32.8-6.078,44.339-11.537,15.19-27.33,24.3-52.233,30.371,4.253-10.328,7.9-37.658,6.075-70.454-4.859,7.287-10.325,21.262-12.15,38.867-6.075-4.856-24.293-18.215-24.293-41.908,0-9.719,3.644-19.434,9.718-29.152-8.506,3.644-14.578,9.109-20.653,21.256-1.822-17.006,1.216-35.227,9.718-48.589-21.865-.609-27.94-13.362-26.724-32.8,6.075,5.469,12.756,9.112,21.865,9.112S166,130.789,177.545,115.6a81.081,81.081,0,0,0-13.972-6.075c-4.253-1.216-10.934-2.431-17.615-10.934-2.431-3.037-6.681-3.647-11.54-3.647-6.075,0-15.187,1.216-29.155,8.506,1.822-35.227,18.831-46.161,32.193-46.161,6.681,0,14.578,2.425,23.081,7.284ZM87.65,300.843c22.471,0,43.124,3.647,43.124,22.478H100.4c0-7.9-5.465-9.112-12.756-9.112-6.681,0-11.54,1.822-11.54,6.681s4.253,7.287,15.184,7.287c27.33,0,39.48,4.862,41.908,17.615l17.615-43.73h39.48l18.828,46.771,19.437-46.771h38.867l21.868,51.627V302.062h62.561c15.79,0,19.437,10.934,19.437,17.615,0,6.078-2.431,14.581-14.581,16.4,13.975,1.216,17.006,11.544,17.006,17.615,0,7.294-5.465,18.831-18.824,18.831H269.857l-4.25-10.928H230.987l-4.863,10.928h-33.4l-4.859-10.928H153.245l-4.859,10.928H121.662l2.428-6.072c-4.253,3.647-11.54,7.9-35.837,7.9-23.081,0-43.73-4.856-44.339-23.687H74.891c0,4.25,3.037,9.112,12.756,9.112,12.15,0,13.362-3.647,13.362-6.684,0-4.25-3.037-7.9-17.615-7.9-21.259,0-36.443-3.64-36.443-20.646.006-19.45,22.481-23.7,40.7-23.7Zm150.024,44.339h21.262L248,319.064Zm-77.745,0h21.259l-10.934-26.118Zm177.354-15.79c2.425,0,4.856-2.431,4.856-5.465a5.228,5.228,0,0,0-4.856-4.862H314.806v10.328Zm-22.478,24.9h23.687c3.041,0,5.472-2.425,5.472-4.856,0-3.041-2.431-4.856-5.472-4.856H314.806Z" transform="translate(98.44 109.366)"/>
      <path id="Path_8" data-name="Path 8" class="cls-6" d="M101.809,57.032c0,2.428-3.037,6.075-8.5,6.075-4.859,0-7.29-3.037-7.9-5.469a7.728,7.728,0,0,1-3.647-.606c0,8.5,6.075,10.934,12.15,10.934,4.253,0,10.934-1.216,12.756-10.934Z" transform="translate(183.285 127.846)"/>
      <path id="Path_9" data-name="Path 9" class="cls-6" d="M111.205,68.039c-8.5-4.859-16.4-7.9-22.474-7.9-14.578,0-20.649,16.4-23.081,25.512Q77.5,82.008,85.7,82.008c7.9,0,13.362,1.822,17.615,6.681,4.253,6.075,9.718,7.29,11.54,7.29,7.9,2.431,21.865,7.287,21.865,13.972a6.126,6.126,0,0,1-1.822,4.859c-13.972,17.612-26.724,22.471-37.658,22.471a40.363,40.363,0,0,1-13.362-2.431c3.037,8.5,11.54,10.328,18.221,10.328,5.469,0,10.328-.609,20.649-3.037-10.931,8.5-20.043,19.437-22.471,36.443,9.719-7.287,20.043-9.112,30.977-9.112-12.756,13.362-20.043,26.724-20.043,40.086,0,13.975,6.075,21.868,10.325,26.724a86.92,86.92,0,0,1,23.687-43.73c4.253,31.587,1.822,65.6-.606,78.957,13.362-4.856,24.9-10.934,34.011-23.077,5.465-9.112,6.072-35.837,4.253-57.7,11.537,7.29,21.862,20.653,26.724,31.587,6.681-6.681,10.321-15.79,10.321-27.94,0-13.362-4.25-25.509-8.5-34.621,9.718,3.037,18.221,7.29,24.909,15.184,1.819-6.075,3.034-11.54,3.034-17.615,0-21.259-11.544-36.443-19.437-44.339,12.759,0,20.046,2.431,27.334,4.859.609-13.362-3.041-29.155-15.184-41.908-10.934,12.756-21.262,20.043-41.908,27.33,18.221,13.972,12.753,35.227-4.253,56.486-1.822-9.112-4.25-17.006-10.328-23.687,1.216,11.54-1.819,32.8-25.509,44.339a82.76,82.76,0,0,0-2.428-24.906c-1.822,1.822-4.859,4.253-7.9,6.684a25.46,25.46,0,0,1-.609-9.718c4.253-3.644,7.9-8.5,12.147-13.362,3.647,9.112,5.469,21.259,6.075,26.724,8.506-7.9,15.187-22.474,6.684-48.589,12.753,6.681,19.434,13.362,24.3,24.3,13.359-22.474-.609-34.011-21.259-41.908,24.3-3.037,54.055-13.968,69.245-44.336-10.328-.609-26.118,3.037-41.305,22.471-1.822-1.216-4.25-3.037-4.856-4.859,6.072-8.5,13.359-15.184,21.256-19.434-.609-1.216-1.209-2.431-1.819-2.431H125.173c-3.037,0-6.075,5.469-7.29,11.54,1.822.609,4.859.609,7.9.609H135.5c6.075,0,15.184.606,20.649,4.253a11.7,11.7,0,0,1-3.037,5.465c-1.216-.606-2.428-.606-3.644-1.216C146.429,85.661,136.71,88.7,130.029,88.7c-17-.006-20.04-13.365-18.824-20.656Z" transform="translate(147.165 114.407)"/>
    </g>
  </g>
</svg>
